<svg width="56.000000" height="56.000000" viewBox="0 0 56 56" fill="none" xmlns="http://www.w3.org/2000/svg" xmlns:xlink="http://www.w3.org/1999/xlink">
	<desc>
			Created with Pixso.
	</desc>
	<defs>
		<clipPath id="clip3_104">
			<rect id="Icon/Solid/sparkles" rx="0.000000" width="55.000000" height="55.000000" transform="translate(0.500000 0.500000)" fill="white" fill-opacity="0"/>
		</clipPath>
	</defs>
	<g clip-path="url(#clip3_104)">
		<path id="Icon" d="M16.79 8.39C16.79 6.85 15.54 5.59 14 5.59C12.45 5.59 11.2 6.85 11.2 8.39L11.2 11.2L8.39 11.2C6.85 11.2 5.59 12.45 5.59 14C5.59 15.54 6.85 16.79 8.39 16.79L11.2 16.79L11.2 19.6C11.2 21.14 12.45 22.4 14 22.4C15.54 22.4 16.79 21.14 16.79 19.6L16.79 16.79L19.6 16.79C21.14 16.79 22.4 15.54 22.4 14C22.4 12.45 21.14 11.2 19.6 11.2L16.79 11.2L16.79 8.39ZM36.3 7.68C35.98 6.45 34.87 5.59 33.59 5.59C32.32 5.59 31.21 6.45 30.89 7.68L27.59 20.15L18.2 25.57C17.33 26.07 16.79 26.99 16.79 28C16.79 29 17.33 29.92 18.2 30.42L27.59 35.84L30.89 48.31C31.21 49.54 32.32 50.4 33.59 50.4C34.87 50.4 35.98 49.54 36.3 48.31L39.6 35.84L48.99 30.42C49.86 29.92 50.39 29 50.39 28C50.39 26.99 49.86 26.07 48.99 25.57L39.6 20.15L36.3 7.68ZM16.79 36.4C16.79 34.85 15.54 33.59 14 33.59C12.45 33.59 11.2 34.85 11.2 36.4L11.2 39.2L8.39 39.2C6.85 39.2 5.59 40.45 5.59 42C5.59 43.54 6.85 44.8 8.39 44.8L11.2 44.8L11.2 47.6C11.2 49.14 12.45 50.4 14 50.4C15.54 50.4 16.79 49.14 16.79 47.6L16.79 44.8L19.6 44.8C21.14 44.8 22.4 43.54 22.4 42C22.4 40.45 21.14 39.2 19.6 39.2L16.79 39.2L16.79 36.4Z" fill="#FF7500" fill-opacity="1.000000" fill-rule="evenodd"/>
	</g>
</svg>
