<svg width="24.000000" height="24.000000" viewBox="0 0 24 24" fill="none" xmlns="http://www.w3.org/2000/svg" xmlns:xlink="http://www.w3.org/1999/xlink">
	<desc>
			Created with Pixso.
	</desc>
	<defs/>
	<path id="icon-telegram" d="M12 0C5.37 0 0 5.37 0 12C0 18.62 5.37 24 12 24C18.62 24 24 18.62 24 12C24 5.37 18.62 0 12 0ZM17.56 8.16C17.38 10.05 16.6 14.66 16.21 16.78C16.04 17.68 15.7 17.98 15.39 18.02C14.7 18.08 14.17 17.56 13.5 17.12C12.44 16.42 11.84 15.99 10.82 15.32C9.63 14.54 10.4 14.11 11.08 13.41C11.26 13.23 14.34 10.43 14.4 10.18C14.41 10.15 14.41 10.04 14.34 9.97C14.26 9.91 14.17 9.93 14.08 9.94C13.98 9.97 12.3 11.08 9.02 13.29C8.54 13.62 8.11 13.78 7.72 13.77C7.29 13.76 6.48 13.53 5.86 13.33C5.11 13.09 4.52 12.96 4.57 12.54C4.59 12.32 4.89 12.1 5.45 11.88C8.96 10.35 11.29 9.34 12.45 8.86C15.79 7.47 16.47 7.23 16.93 7.23C17.02 7.23 17.25 7.26 17.4 7.38C17.52 7.47 17.55 7.6 17.56 7.7C17.55 7.77 17.58 7.99 17.56 8.16Z" fill="#252420" fill-opacity="1.000000" fill-rule="evenodd"/>
</svg>
