<svg width="24.000000" height="24.000000" viewBox="0 0 24 24" fill="none" xmlns="http://www.w3.org/2000/svg" xmlns:xlink="http://www.w3.org/1999/xlink">
	<desc>
			Created with Pixso.
	</desc>
	<defs/>
	<path id="icon-instagram" d="M12 0C8.74103 0 8.33301 0.0140381 7.05298 0.0720215C2.69501 0.271973 0.27301 2.68994 0.072998 7.052C0.0139771 8.33301 0 8.74097 0 12C0 15.259 0.0139771 15.668 0.0720215 16.948C0.271973 21.306 2.69 23.728 7.052 23.928C8.33301 23.986 8.74103 24 12 24C15.259 24 15.668 23.986 16.948 23.928C21.302 23.728 23.73 21.3101 23.927 16.948C23.986 15.668 24 15.259 24 12C24 8.74097 23.986 8.33301 23.928 7.05298C23.732 2.69897 21.311 0.272949 16.949 0.072998C15.668 0.0140381 15.259 0 12 0ZM16.85 2.23303C15.584 2.17505 15.204 2.16296 12 2.16296C8.79602 2.16296 8.41699 2.17505 7.151 2.23206C3.896 2.38 2.38098 3.92395 2.23199 7.151C2.17499 8.41699 2.16199 8.79602 2.16199 12C2.16199 15.205 2.17401 15.584 2.23199 16.849C2.38 20.0699 3.89099 21.62 7.151 21.769C8.41602 21.827 8.79602 21.839 12 21.839C15.206 21.839 15.584 21.827 16.85 21.769C20.105 21.621 21.62 20.075 21.769 16.85C21.826 15.585 21.838 15.2061 21.838 12.001C21.838 8.797 21.827 8.41699 21.769 7.15198C21.621 3.92395 20.102 2.38098 16.85 2.23303ZM16.965 5.59497C16.965 4.80005 17.61 4.15503 18.406 4.15503C19.201 4.15503 19.845 4.80005 19.845 5.59497C19.845 6.39001 19.201 7.03503 18.406 7.03503C17.61 7.03503 16.965 6.39001 16.965 5.59497ZM5.83801 12C5.83801 8.59705 8.59698 5.83801 12 5.83801C15.403 5.83801 18.162 8.59705 18.162 12C18.162 15.4041 15.403 18.163 12 18.163C8.59698 18.163 5.83801 15.403 5.83801 12ZM12 16C9.79102 16 8 14.21 8 12C8 9.79102 9.79102 8 12 8C14.209 8 16 9.79102 16 12C16 14.21 14.209 16 12 16Z" clip-rule="evenodd" fill="#252420" fill-opacity="1.000000" fill-rule="evenodd"/>
</svg>
