<svg width="227.000000" height="59.184143" viewBox="0 0 227 59.1841" fill="none" xmlns="http://www.w3.org/2000/svg" xmlns:xlink="http://www.w3.org/1999/xlink">
	<desc>
			Created with Pixso.
	</desc>
	<defs>
		<clipPath id="clip623_16">
			<rect id="akademnashr-logo 1" rx="0.000000" width="37.000000" height="58.184132" transform="translate(0.500000 0.500000)" fill="white" fill-opacity="0"/>
		</clipPath>
	</defs>
	<rect id="akademnashr-logo 1" rx="0.000000" width="37.000000" height="58.184132" transform="translate(0.500000 0.500000)" fill="#FFFFFF" fill-opacity="0"/>
	<g clip-path="url(#clip623_16)">
		<path id="Vector" d="M19 0L0 13.64L0 48.65L10.53 59.18L10.3 22.41L19 15.3L27.69 22.41L27.46 59.18L38 48.65L38 13.64L19 0Z" fill="#252420" fill-opacity="1.000000" fill-rule="nonzero"/>
		<path id="Vector" d="M25.99 29.59L19 33.79L12 29.59L12 41.85L19 46.05L25.99 41.85L25.99 29.59Z" fill="#FF7401" fill-opacity="1.000000" fill-rule="nonzero"/>
	</g>
	<path id="Akademnashr" d="M75.14 35.4L76.32 34.07L79.42 40.59L84.48 40.59L79.1 30.65L84.01 23.68L78.75 23.68L75.68 28.74L75.14 29.56L75.14 16.59L70.71 16.59L70.71 40.59L75.14 40.59L75.14 35.4ZM101.9 25.42Q100.5 27.46 100.5 31.62L100.5 32.9Q100.53 36.84 101.93 38.87Q102.51 39.71 103.3 40.2Q104.43 40.9 105.98 40.9Q106.74 40.9 107.39 40.65Q108.6 40.18 109.48 38.87L109.68 40.59L113.7 40.59L113.7 16.59L109.25 16.59L109.25 25.06Q108.46 24.03 107.42 23.63Q106.76 23.37 106 23.37Q104.41 23.37 103.27 24.08Q102.48 24.58 101.9 25.42ZM56.42 35.93L62.68 35.93L63.9 40.59L68.81 40.59L61.65 17.84L57.45 17.84L50.34 40.59L55.2 40.59L56.42 35.93ZM93.68 39.27Q93.87 40.2 94.06 40.59L98.51 40.59L98.51 40.32Q97.92 39.09 97.89 36.9L97.89 28.95Q97.89 26.62 96.75 25.23Q96.57 25.01 96.36 24.81Q96.29 24.75 96.22 24.68Q94.71 23.37 92.06 23.37Q89.95 23.37 88.41 24.31Q87.99 24.56 87.61 24.89Q86.75 25.64 86.31 26.58Q85.85 27.56 85.85 28.76L90.28 28.76Q90.28 27.64 90.83 27.17Q91.23 26.82 91.93 26.82Q92.51 26.82 92.88 27.1Q92.98 27.18 93.07 27.29Q93.46 27.76 93.46 28.9L93.46 30.26L92.12 30.26Q88.93 30.29 87.24 31.74Q86.8 32.12 86.47 32.58Q85.54 33.89 85.54 35.85Q85.54 37.42 86.23 38.58Q86.52 39.07 86.94 39.49Q87.48 40.03 88.12 40.37Q89.15 40.9 90.46 40.9Q91.5 40.9 92.32 40.47Q93.1 40.07 93.68 39.27ZM119.28 39.6Q121.05 40.9 123.78 40.9Q125.35 40.9 126.73 40.37Q126.93 40.3 127.14 40.2Q128.68 39.51 129.5 38.38L127.76 35.71Q127.13 36.36 126.36 36.73Q125.33 37.23 124.06 37.23Q122.71 37.23 121.98 36.56Q121.88 36.46 121.79 36.36Q121.06 35.49 120.96 33.62L129.76 33.62L129.76 31.45Q129.73 27.45 128.12 25.41Q127.73 24.91 127.24 24.54Q125.74 23.37 123.32 23.37Q121.02 23.37 119.47 24.45Q118.82 24.9 118.31 25.54Q116.56 27.71 116.56 31.71L116.56 33.06Q116.56 36.79 118.42 38.82Q118.44 38.84 118.46 38.87Q118.84 39.27 119.28 39.6ZM136.54 25.24L136.42 23.68L132.28 23.68L132.28 40.59L136.7 40.59L136.7 28.31Q137.16 27.45 137.86 27.19Q138.16 27.07 138.51 27.07Q139.28 27.07 139.69 27.46Q139.81 27.57 139.9 27.72Q140.29 28.37 140.29 29.82L140.29 40.59L144.71 40.59L144.71 29.12L144.68 28.59Q145.12 27.51 145.87 27.2Q146.17 27.07 146.53 27.07Q147.27 27.07 147.69 27.44Q147.81 27.55 147.9 27.7Q148.31 28.32 148.31 29.79L148.31 40.59L152.73 40.59L152.73 29.51Q152.66 25.46 150.7 24.08Q149.69 23.37 148.18 23.37Q146.86 23.37 145.83 23.92Q144.78 24.49 144.04 25.65Q143.53 24.53 142.65 23.96Q141.75 23.37 140.46 23.37Q139.18 23.37 138.17 23.89Q137.25 24.35 136.54 25.24ZM61.67 32.1L57.42 32.1L59.54 23.99L61.67 32.1ZM125.42 30.52L121 30.52Q121.09 28.7 121.61 27.87Q121.78 27.6 122.02 27.42Q122.51 27.04 123.29 27.04Q124.14 27.04 124.62 27.46Q124.79 27.61 124.92 27.82Q125.39 28.6 125.42 30.12L125.42 30.52ZM105.46 36.22Q104.93 35.23 104.93 32.73L104.93 31.56Q104.93 29.04 105.5 28.06Q105.74 27.63 106.1 27.39Q106.58 27.07 107.28 27.07Q107.84 27.07 108.29 27.3Q108.87 27.61 109.25 28.32L109.25 36.04Q108.89 36.66 108.36 36.95Q107.88 37.21 107.26 37.21Q106.49 37.21 105.99 36.84Q105.67 36.61 105.46 36.22ZM92.7 37.13Q92.18 37.43 91.45 37.43Q90.89 37.43 90.54 37.16Q89.98 36.72 89.98 35.56Q89.98 34.49 90.49 33.8Q90.56 33.71 90.63 33.63Q90.81 33.43 91.03 33.29Q91.59 32.92 92.4 32.92L93.46 32.92L93.46 36.43Q93.21 36.84 92.7 37.13Z" fill="#252420" fill-opacity="1.000000" fill-rule="evenodd"/>
	<path id="Akademnashr" d="M207.7 23.62Q206.55 24.04 205.65 25.17L205.65 16.59L201.23 16.59L201.23 40.59L205.65 40.59L205.65 28.18Q206.04 27.54 206.61 27.27Q207.02 27.07 207.53 27.07Q208.32 27.07 208.77 27.46Q208.91 27.58 209.02 27.74Q209.48 28.4 209.48 29.88L209.48 40.59L213.92 40.59L213.92 29.84Q213.9 26.62 212.7 24.99Q212.29 24.45 211.76 24.08Q210.72 23.37 209.18 23.37Q208.4 23.37 207.7 23.62ZM160.17 25.35L160.04 23.68L155.89 23.68L155.89 40.59L160.32 40.59L160.32 28.31Q160.76 27.51 161.41 27.23Q161.77 27.07 162.2 27.07Q163.09 27.07 163.54 27.52Q163.63 27.61 163.71 27.72Q164.14 28.37 164.14 29.81L164.14 40.59L168.57 40.59L168.57 29.48Q168.49 25.41 166.53 24.05Q165.55 23.37 164.09 23.37Q162.96 23.37 162.03 23.8Q160.97 24.29 160.17 25.35ZM179.4 39.27Q179.59 40.2 179.78 40.59L184.23 40.59L184.23 40.32Q183.64 39.09 183.6 36.9L183.6 28.95Q183.6 26.62 182.47 25.23Q182.29 25.01 182.08 24.81Q182.01 24.75 181.94 24.68Q180.43 23.37 177.78 23.37Q175.67 23.37 174.13 24.31Q173.71 24.56 173.33 24.89Q172.47 25.64 172.03 26.58Q171.57 27.56 171.57 28.76L176 28.76Q176 27.64 176.55 27.17Q176.95 26.82 177.65 26.82Q178.23 26.82 178.6 27.1Q178.7 27.18 178.79 27.29Q179.18 27.76 179.18 28.9L179.18 30.26L177.84 30.26Q174.65 30.29 172.96 31.74Q172.51 32.12 172.19 32.58Q171.26 33.89 171.26 35.85Q171.26 37.42 171.95 38.58Q172.24 39.07 172.66 39.49Q173.2 40.03 173.84 40.37Q174.87 40.9 176.18 40.9Q177.22 40.9 178.04 40.47Q178.82 40.07 179.4 39.27ZM194.28 35.88Q194.29 35.96 194.29 36.06Q194.29 36.78 193.93 37.18Q193.49 37.67 192.51 37.67Q191.36 37.67 190.85 37.09Q190.85 37.09 190.85 37.09Q190.34 36.51 190.31 35.35L186.1 35.35Q186.1 36.02 186.26 36.64Q186.46 37.43 186.91 38.15Q187.19 38.6 187.54 38.97Q188.2 39.7 189.14 40.17Q190.56 40.9 192.42 40.9Q195.11 40.9 196.79 39.6Q196.84 39.56 196.89 39.52Q197.66 38.9 198.08 38.09Q198.59 37.12 198.59 35.88Q198.59 34.32 197.88 33.23Q197.7 32.95 197.47 32.7Q196.35 31.48 193.65 30.48Q191.79 29.68 191.29 29.25Q190.93 28.94 190.83 28.56Q190.79 28.42 190.79 28.26Q190.79 27.61 191.1 27.2Q191.17 27.11 191.25 27.04Q191.38 26.91 191.55 26.81Q191.91 26.6 192.4 26.6Q193.11 26.6 193.52 26.95Q194.12 27.45 194.12 28.67L198.54 28.67Q198.54 27.13 197.87 25.99Q197.48 25.33 196.87 24.81Q196.76 24.71 196.65 24.63Q195.02 23.37 192.42 23.37Q190.13 23.37 188.62 24.45Q188.39 24.62 188.18 24.81Q187.44 25.47 187.04 26.3Q186.57 27.27 186.57 28.48Q186.57 29.78 187.13 30.77Q187.33 31.12 187.6 31.43Q188.62 32.62 191.35 33.73Q193.21 34.54 193.75 35.02Q194.2 35.42 194.28 35.88ZM223.96 27.82L225.43 27.95L225.48 23.57Q225.01 23.37 224.26 23.37Q223.74 23.37 223.29 23.54Q222.12 23.97 221.37 25.51L221.25 23.68L217.07 23.68L217.07 40.59L221.51 40.59L221.51 29.42Q221.8 28.69 222.34 28.29Q222.98 27.82 223.96 27.82ZM178.42 37.13Q177.9 37.43 177.17 37.43Q176.61 37.43 176.26 37.16Q175.7 36.72 175.7 35.56Q175.7 34.49 176.21 33.8Q176.28 33.71 176.35 33.63Q176.53 33.43 176.75 33.29Q177.31 32.92 178.12 32.92L179.18 32.92L179.18 36.43Q178.93 36.84 178.42 37.13Z" fill="#FF7500" fill-opacity="1.000000" fill-rule="evenodd"/>
</svg>
